/* XPM */
const char * yatish_recording_xpm [] = {
"32 32 3 1",
"0 c #000000",
"1 c #00FF00",
"2 c #FF0000",
"00000000000000000000000000000000",
"00000000000000000000000000000000",
"00000000000000000000000000000000",
"00000000000000000000000000000000",
"00000000000000000000000000000000",
"00000000000000000000000000000000",
"00000002220000000000000000000000",
"00000022222200000000000000000000",
"00000022222222000000000000000000",
"00000022200222220000000000000000",
"01100122211112222211111101111110",
"01100122211111022222111101111110",
"01100122210011011222220001100000",
"01100122210011011002222201100000",
"01100122210011000000122222100000",
"01111122211111000000110222211110",
"01111122211111000000110222211110",
"00000122210011000000122222000110",
"00000122210011011002222200000110",
"00000122210011011222220000000110",
"01111122210011022222110001111110",
"01111122210012222200110001111110",
"00000022200222220000000000000000",
"00000022222222000000000000000000",
"00000022222200000000000000000000",
"00000002220000000000000000000000",
"00000000000000000000000000000000",
"00000000000000000000000000000000",
"00000000000000000000000000000000",
"00000000000000000000000000000000",
"00000000000000000000000000000000",
"00000000000000000000000000000000"
};
