/* XPM */
const char * yatish_xpm [] = {
"32 32 2 1",
"0 c #000000",
"1 c #00FF00",
"00000000000000000000000000000000",
"00000000000000000000000000000000",
"00000000000000000000000000000000",
"00000000000000000000000000000000",
"00000000000000000000000000000000",
"00000000000000000000000000000000",
"00000000000000000000000000000000",
"00000000000000000000000000000000",
"00000000000000000000000000000000",
"00000000000000000000000000000000",
"01100110111111000011111101111110",
"01100110111111000011111101111110",
"01100110110011011000110001100000",
"01100110110011011000110001100000",
"01100110110011000000110001100000",
"01111110111111000000110001111110",
"01111110111111000000110001111110",
"00000110110011000000110000000110",
"00000110110011011000110000000110",
"00000110110011011000110000000110",
"01111110110011000000110001111110",
"01111110110011000000110001111110",
"00000000000000000000000000000000",
"00000000000000000000000000000000",
"00000000000000000000000000000000",
"00000000000000000000000000000000",
"00000000000000000000000000000000",
"00000000000000000000000000000000",
"00000000000000000000000000000000",
"00000000000000000000000000000000",
"00000000000000000000000000000000",
"00000000000000000000000000000000"
};
